<svg viewBox="0 0 706 650" xmlns="http://www.w3.org/2000/svg" fill-rule="evenodd" clip-rule="evenodd" stroke-linejoin="round" stroke-miterlimit="1.414"><path d="M497.44 15.78c82.39 11.67 185.76 56 204.53 121.3 18.78 65.47-47 151.75-109.62 220.78C529.75 427.05 470.37 479 397.62 514c-72.74 34.85-158.69 53-216.54 20.13C123.39 501.49 94 417.92 59.77 344.32c-34.34-73.76-73.59-137.71-55-182.54 18.63-44.66 95.1-70.21 152.62-86.28 57.52-16.07 95.92-22.84 146-36.54C353.3 25.08 414.88 4.11 497.44 15.78z" fill="#f2f2f2" fill-rule="nonzero"/><path d="M235.25 35.51c-13.21 0-17.34 20.64-17.34 28.89 0 14 14.86 71.82 28.89 71.82 14.03 0 28.9-57 28.9-63.56 0-6.56-17.34-37.15-40.45-37.15z" fill="#de8e68" fill-rule="nonzero"/><path d="M514.684 69.177c2.694-13.73-6.266-27.063-19.995-29.756L296.114.462c-13.729-2.693-27.062 6.266-29.756 19.996l-75.774 386.227c-2.694 13.729 6.266 27.062 19.995 29.756L409.153 475.4c13.73 2.693 27.063-6.266 29.757-19.996l75.774-386.227z" fill="#1a7aff"/><path d="M449.19 30.59l-2.51 12.79c-1.285 6.471-7.654 10.749-14.13 9.49l-85.62-16.8c-6.468-1.29-10.743-7.655-9.49-14.13L340 9.15" fill="#f5e17b" fill-rule="nonzero"/><path d="M175.09 386.56l270.64 53.11" fill-rule="nonzero"/><circle cx="310.67" cy="434.45" r="10.03" fill="#f5e17b"/><path d="M219.57 147c-17.34 0-28.9 13.2-28.9 27.24 0 46.22 26.42 84.19 38 84.19 24.76 0 33.84-13.21 33.84-22.29-.02-6.65-3.32-89.14-42.94-89.14zm-9.08 121.29c4.95 4.95 42.92 45.4 42.92 73.46 0 19-4.13 33.84-38.8 33.84-16.51 0-62.73-65.21-62.73-91.62 0-14.86 9.08-49.53 34.67-49.53 7.43 0 23.94 13.21 26.41 16.51a92.507 92.507 0 0 0 8.08 7.43c-1.04 5.37-6.78 33.62-6.78 33.62" fill="#de8e68" fill-rule="nonzero"/><path d="M222.65 281.88s-11.75-14.83-19.18-21.43" fill-rule="nonzero"/><path d="M204.32 434.35c-2.47 6.61-4.15 70.43 3.28 105.92-5 25.59-24.77 109-24.77 109H362l18.16-72.64S490.72 480 501.45 462.68c10.73-17.32 35.91-118.45 35.55-127.94-.29-6.6-120.52-108.14-123.82-112.27-3.3-4.13-61.36 54 35.22 120.9-.83 8.25-.78 44.69-.78 44.69s-67.18 23.09-74 28.07c-6.82 4.98-19.87 40.07-22.23 47.94-9.13-1.78-147.07-29.72-147.07-29.72z" fill="#de8e68" fill-rule="nonzero"/><path d="M337.31 505.43c2.25-8.6 13.16-39.49 15.87-46.86" fill-rule="nonzero"/></svg>