<?xml version="1.0" encoding="iso-8859-1"?>
<!-- Generator: Adobe Illustrator 19.0.0, SVG Export Plug-In . SVG Version: 6.00 Build 0)  -->
<svg version="1.1" id="Capa_1" xmlns="http://www.w3.org/2000/svg" xmlns:xlink="http://www.w3.org/1999/xlink" x="0px" y="0px"
	 viewBox="0 0 400.197 400.197" style="enable-background:new 0 0 400.197 400.197;" xml:space="preserve">
<g>
	<g>
		<g>
			<path d="M47.543,194.873c-13.061,0-25.078,7.314-25.078,19.853v65.306c0.55,13.529,11.54,24.29,25.078,24.555h32.392V194.873
				h-23.51H47.543z"/>
			<path d="M213.16,333.322c-18.467,0.144-33.32,15.231-33.176,33.698c0.144,18.467,15.231,33.32,33.698,33.176
				c9.169,0.035,17.986-3.529,24.555-9.927c5.838-6.182,8.862-14.5,8.359-22.988C246.599,348.729,231.71,333.608,213.16,333.322z"/>
			<path d="M352.654,194.873h-27.167v109.714h27.167c5.747,0,25.078-2.09,25.078-19.331v-65.306
				C376.733,206.536,366.069,195.871,352.654,194.873z"/>
			<path d="M330.711,146.286v38.139h15.673v-38.139C346.384,65.494,280.89,0,200.098,0S53.813,65.494,53.813,146.286v38.139h15.673
				v-38.139c0-72.135,58.477-130.612,130.612-130.612S330.711,74.151,330.711,146.286z"/>
			<path d="M332.278,325.486c-18.111,23.705-47.078,36.513-76.8,33.959l-1.045,15.151h9.404
				c31.849,0.207,61.904-14.724,80.98-40.229l13.584-18.808l-12.539-8.882L332.278,325.486z"/>
		</g>
	</g>
</g>
<g>
</g>
<g>
</g>
<g>
</g>
<g>
</g>
<g>
</g>
<g>
</g>
<g>
</g>
<g>
</g>
<g>
</g>
<g>
</g>
<g>
</g>
<g>
</g>
<g>
</g>
<g>
</g>
<g>
</g>
</svg>
