<svg id="_x33_0" enable-background="new 0 0 64 64" height="512" viewBox="0 0 64 64" width="512" xmlns="http://www.w3.org/2000/svg"><g><path d="m14 53c-1.654 0-3 1.346-3 3s1.346 3 3 3 3-1.346 3-3-1.346-3-3-3zm0 4c-.552 0-1-.448-1-1s.448-1 1-1 1 .448 1 1-.448 1-1 1z"/><path d="m48 53c-1.654 0-3 1.346-3 3s1.346 3 3 3 3-1.346 3-3-1.346-3-3-3zm0 4c-.552 0-1-.448-1-1s.448-1 1-1 1 .448 1 1-.448 1-1 1z"/><path d="m31 61h4v2h-4z"/><path d="m52.889 61c1.301-1.272 2.111-3.042 2.111-5 0-1.902-.765-3.626-2-4.889v-4.111c0-1.103-.897-2-2-2v-12h4c1.103 0 2-.897 2-2v-2c0-1.103-.897-2-2-2h-4c-3.309 0-6 2.691-6 6v12h-12c0-.801-.313-1.555-.879-2.121l-3.879-3.879 3.879-3.879c.567-.566.879-1.32.879-2.121s-.313-1.555-.879-2.121l-3.879-3.879 3.879-3.879c.567-.566.879-1.32.879-2.121h6c1.103 0 2-.897 2-2v-12c0-3.309-2.691-6-6-6h-22c-3.309 0-6 2.691-6 6v12c0 1.103.897 2 2 2h6c0 .801.313 1.555.879 2.121l3.879 3.879-3.879 3.879c-.566.566-.879 1.32-.879 2.121s.313 1.555.879 2.121l3.879 3.879-3.879 3.879c-.566.566-.879 1.32-.879 2.121h-6c-1.103 0-2 .897-2 2v2c0 1.103.897 2 2 2h.111c-1.301 1.272-2.111 3.042-2.111 5s.81 3.728 2.111 5h-8.111v2h28v-2h-10.111c.587-.574 1.068-1.251 1.426-2h21.37c.357.749.839 1.426 1.426 2h-6.111v2h26v-2zm-9.778-10h-2.111v-4h10v2.685c-.911-.434-1.926-.685-3-.685-1.902 0-3.626.765-4.889 2zm-6.111 0v-4h2v4zm10-18c0-2.206 1.794-4 4-4h4v2h-4c-1.103 0-2 .897-2 2v12h-2zm-12 14v4h-2v-4zm-9.242-2h-3.516l1.758-1.758zm3.242 2h2v4h-2zm2-14c0 .271-.102.516-.293.707l-3.879 3.879-1.414-1.414 3.879-3.879c.383-.383 1.031-.383 1.414 0 .191.191.293.436.293.707zm-5.242 0-1.758 1.758-1.758-1.758 1.758-1.758zm4.949-11.293-3.879 3.879-1.414-1.414 3.172-3.172h2.414c0 .271-.102.516-.293.707zm-4.949-.707-1.758 1.758-1.758-1.758zm-.758-2c0-2.206 1.794-4 4-4h10.001l.001 4zm-12-4v-8h6v8zm8-8h6v6.35c-.954.339-1.796.911-2.46 1.65h-3.54zm14 6h-6v-6h6zm-22-10h22c2.206 0 4 1.794 4 4l.001 6h-2.001v-6c0-1.103-.897-2-2-2h-22c-1.103 0-2 .897-2 2v8h-2v-8c0-2.206 1.794-4 4-4zm-4 16v-2h14.35c-.222.627-.35 1.298-.35 2zm8 2h2.414l9.311 9.311c-.309.139-.6.322-.846.568l-.707.707-9.879-9.879c-.191-.191-.293-.436-.293-.707zm5.586 8.828-1.758 1.758-.707-.707c-.246-.246-.537-.429-.846-.568l1.897-1.897zm-5.586 3.172c0-.271.102-.516.293-.707.383-.383 1.031-.383 1.414 0l12 12c.191.191.293.436.293.707h-2.414l-11.293-11.293c-.191-.191-.293-.436-.293-.707zm.293 11.293 3.879-3.879 1.414 1.414-3.172 3.172h-2.414c0-.271.102-.516.293-.707zm-3.293 16.707c-2.757 0-5-2.243-5-5s2.243-5 5-5 5 2.243 5 5-2.243 5-5 5zm6.92-4c.047-.328.08-.66.08-1 0-3.859-3.141-7-7-7h-5v-2h18v4c0 1.103.897 2 2 2h12.685c-.434.911-.685 1.926-.685 3 0 .34.033.672.08 1zm22.08-1c0-2.757 2.243-5 5-5s5 2.243 5 5-2.243 5-5 5-5-2.243-5-5z"/></g></svg>