<svg id="Layer_1_1_" enable-background="new 0 0 64 64" height="512" viewBox="0 0 64 64" width="512" xmlns="http://www.w3.org/2000/svg"><path d="m61.051 21.917c-.595-.367-1.321-.398-1.946-.087l-3.646 1.823c-.619-.989-1.709-1.653-2.959-1.653h-10.767c-.217-1.004-.542-1.979-1.138-2.796 1.938-1.396 3.116-3.575 3.354-6.204h.051 5v-2h-4.051c-.503-5.046-4.772-9-9.949-9-5.514 0-10 4.486-10 10 0 .552.448 1 1 1h.05c.238 2.621 1.409 4.795 3.337 6.191-.912 1.179-1.387 2.813-1.387 4.809v11c0 1.594.629 3.041 1.646 4.116-.54-.069-1.087-.116-1.646-.116h-2v-16-4c0-.552-.448-1-1-1h-22c-.552 0-1 .448-1 1v4 17 4c0 .552.448 1 1 1h6.063c-1.3 2.023-2.063 4.422-2.063 7v4c0 .552.448 1 1 1h7c0 2.757 2.243 5 5 5s5-2.243 5-5h15 10c0 2.757 2.243 5 5 5s5-2.243 5-5h1c.552 0 1-.448 1-1v-10c0-3.519-2.613-6.432-6-6.92v-12.462l3.105 1.553c.285.142.591.213.896.213.364 0 .727-.101 1.05-.3.595-.368.949-1.004.949-1.702v-2.764c0-.698-.354-1.334-.949-1.701zm-31.051 12.083h10c0 .552.448 1 1 1 4.962 0 9 4.038 9 9v3h-4v-2c0-3.309-2.691-6-6-6h-6c-2.206 0-4-1.794-4-4zm16 15h4.727c.83.51 2.418 1.701 3.027 3h-7.754zm6-1.562v-3.438c0-5.729-4.401-10.448-10-10.955v-4.045h10.5c.539 0 1.044-.133 1.5-.351v20.376c-.733-.721-1.499-1.265-2-1.587zm-11.094-23.438h11.594c.827 0 1.5.673 1.5 1.5s-.673 1.5-1.5 1.5h-11.5c-.552 0-1 .448-1 1v4h-10v-8c0-1.297.256-2.997 1.376-4h7.224c.741.678 1.081 1.752 1.321 3.167.08.481.497.833.985.833zm-5.906-20c4.072 0 7.444 3.059 7.938 7h-15.876c.494-3.941 3.866-7 7.938-7zm-6.945 9h13.89c-.249 2.27-1.371 4.013-3.212 5h-7.466c-1.841-.987-2.962-2.731-3.212-5zm-5.667 26 1.561-4.684c.102-.305.05-.64-.138-.901s-.49-.415-.811-.415h-.612l1.561-4.684c.102-.305.05-.64-.138-.901s-.49-.415-.811-.415h-18c-.321 0-.623.154-.811.416-.188.261-.239.596-.138.901l1.561 4.683h-.612c-.321 0-.623.154-.811.416-.188.261-.239.596-.138.901l1.561 4.683h-1.612v-15h20v15zm-16.001-10h6.613v2h2v-2h6.613l-1.334 4h-12.558zm0 6h6.613v2h2v-2h6.613l-1.333 4h-.28-12.279zm17.613-15v2h-20v-2zm-20 23v-2h3 6.103c-.901.567-1.728 1.236-2.463 2zm16 17c-1.654 0-3-1.346-3-3h6c0 1.654-1.346 3-3 3zm-7-5v-1c0-4.962 4.038-9 9-9s9 4.038 9 9v1zm26 0h-6v-1c0-6.065-4.935-11-11-11s-11 4.935-11 11v1h-2v-3c0-6.065 4.935-11 11-11h1 7c6.065 0 11 4.935 11 11zm-4.103-14h5.103c2.206 0 4 1.794 4 4v3 4h-3c0-4.634-2.444-8.698-6.103-11zm6.103 14v-1h13v1zm14 5c-1.654 0-3-1.346-3-3h3 3c0 1.654-1.346 3-3 3zm5-14v9h-4v-13.899c2.279.465 4 2.485 4 4.899zm0-19.618-2.764-1.382 2.764-1.382z"/></svg>
