<?xml version="1.0" encoding="iso-8859-1"?>
<!-- Generator: Adobe Illustrator 19.0.0, SVG Export Plug-In . SVG Version: 6.00 Build 0)  -->
<svg version="1.1" id="Capa_1" xmlns="http://www.w3.org/2000/svg" xmlns:xlink="http://www.w3.org/1999/xlink" x="0px" y="0px"
	 viewBox="0 0 480.02 480.02" style="enable-background:new 0 0 480.02 480.02;" xml:space="preserve">
<g>
	<g>
		<path d="M120.01,376c-17.673,0-32,14.327-32,32c0,17.673,14.327,32,32,32s32-14.327,32-32C152.01,390.327,137.683,376,120.01,376z
			 M120.01,424c-8.837,0-16-7.163-16-16s7.163-16,16-16s16,7.163,16,16S128.847,424,120.01,424z"/>
	</g>
</g>
<g>
	<g>
		<path d="M478.514,443.352l-40-56c-0.166-0.188-0.342-0.367-0.528-0.536c-0.247-0.286-0.514-0.553-0.8-0.8
			c-0.466-0.398-0.976-0.742-1.52-1.024c-0.277-0.17-0.566-0.32-0.864-0.448c-0.887-0.351-1.83-0.541-2.784-0.56H416.01V200
			c0-4.418-3.582-8-8-8h-56V88c0-4.418-3.582-8-8-8h-144c-4.418,0-8,3.582-8,8v104h-8c-4.418,0-8,3.582-8,8v162.84
			c-8.375-10.353-19.45-18.189-32-22.64V8c0-4.418-3.582-8-8-8h-32c-4.418,0-8,3.582-8,8v8h-64c-17.673,0-32,14.327-32,32
			s14.327,32,32,32h64v260.2c-37.472,13.228-57.125,54.328-43.897,91.8c13.228,37.472,54.328,57.125,91.8,43.897
			c20.517-7.243,36.654-23.38,43.897-43.897h208.448l37.6,45.128c1.523,1.823,3.777,2.875,6.152,2.872h32c4.418,0,8-3.582,8-8v-24
			C480.011,446.332,479.488,444.706,478.514,443.352z M112.01,16h16v320.472c-5.315-0.63-10.685-0.63-16,0V16z M32.01,64
			c-8.837,0-16-7.163-16-16s7.163-16,16-16h64v32H32.01z M120.01,464c-30.928,0-56-25.072-56-56c0-30.928,25.072-56,56-56
			c30.928,0,56,25.072,56,56C175.97,438.911,150.922,463.96,120.01,464z M256.01,96h32v32h-32V96z M208.01,96h32v40
			c0,4.418,3.582,8,8,8h48c4.418,0,8-3.582,8-8V96h32v96h-128V96z M320.01,208v96h-48v-96H320.01z M192.01,208h64v104
			c0,4.418,3.582,8,8,8h64c4.418,0,8-3.582,8-8V208h64v176h-208V208z M191.538,416c0.63-5.315,0.63-10.685,0-16H424.01v16H191.538z
			 M464.01,464h-20.248l-26.672-32h14.92c4.418,0,8-3.582,8-8v-7.04l24,33.6V464z"/>
	</g>
</g>
<g>
</g>
<g>
</g>
<g>
</g>
<g>
</g>
<g>
</g>
<g>
</g>
<g>
</g>
<g>
</g>
<g>
</g>
<g>
</g>
<g>
</g>
<g>
</g>
<g>
</g>
<g>
</g>
<g>
</g>
</svg>
