<?xml version="1.0" encoding="utf-8"?>
<!-- Generator: Adobe Illustrator 16.0.3, SVG Export Plug-In . SVG Version: 6.00 Build 0)  -->
<!DOCTYPE svg PUBLIC "-//W3C//DTD SVG 1.1//EN" "http://www.w3.org/Graphics/SVG/1.1/DTD/svg11.dtd">
<svg version="1.1" fill="#fff" id="Layer_1" xmlns="http://www.w3.org/2000/svg" xmlns:xlink="http://www.w3.org/1999/xlink" x="0px" y="0px"
	 width="400px" height="180px" viewBox="0 0 400 180" enable-background="new 0 0 400 180" xml:space="preserve">
<g>
	<polygon fill="#fff" points="177.1,73.447 177.1,73.447 180,69.947 180,69.947 179.8,68.247 170.9,61.548 167.1,66.048
		175.3,73.646 	"/>
	<path fill="#fff" d="M163,112.443c-2.3,2.9-2,7.102,0.9,9.4s7.1,2,9.4-0.9L208.9,77.645c4.601,1.099,9.601,1.4,13.301-1.9l0,0
		v-0.1l8.1-11.298l-6.6-5.199c0,0-4.5,5.599-7.4,9.098c-2.898,3.6-13.1-4.798-10.199-8.499c2.899-3.699,7.603-9.297,7.603-9.297
		l-6.7-5.3l-9.3,9.899c-2.9,4.198-1.4,9.896,0.6,14.197L163,112.443z M171,118.545c-1.3,1.398-3.4,1.802-4.8,0.5
		c-1.4-1.301-1.8-3.397-0.5-4.801c0.6-0.801,1.8-1.301,2.6-1.301c0.8,0,1.6,0.301,2.2,0.801
		C172.1,114.744,172.3,116.943,171,118.545z"/>
	<path fill="#fff" d="M231.5,122.744l7-8.301l0.1-3.1L217.7,94.145l-9.9,12.1c5.101,4,15.8,13.103,20.8,17.201L231.5,122.744z
		 M217.7,97.344l17.899,14.801l-1.301,1.398L216.4,98.645L217.7,97.344z M215,100.743l17.9,14.802l-1.301,1.398L213.7,102.145
		L215,100.743z M212.1,103.943l17.9,14.801l-1.3,1.398l-17.8-14.699L212.1,103.943z"/>
	<polygon fill="#fff" points="202.4,101.645 212.3,89.543 208.8,86.544 198.7,98.544 	"/>
	<polygon fill="#fff" points="187.1,81.845 190,78.245 180.3,70.246 177.4,73.746 	"/>
	<path fill="#fff" d="M206.9,101.544c1.1,0.899,1.396,2.303,1.1,3.604l8.9-10.802c-1.301,0.6-2.604,0.6-3.7-0.302
		c-1.101-0.897-1.4-2.198-1.101-3.397l-8.603,10.5C204.5,100.544,206,100.743,206.9,101.544z"/>
	<polygon fill="#fff" points="201.8,88.044 198.9,91.442 202,94.044 204.9,90.544 	"/>
</g>
<path d="M200,34.553c30.6,0,55.5,24.795,55.5,55.491c0,30.602-24.8,55.501-55.5,55.501c-30.6,0-55.5-24.801-55.5-55.501
	C144.6,59.349,169.4,34.553,200,34.553z M207.4,15.353c-4.9-0.5-9.8-0.5-14.7,0l-2.2,11.6c-4.7,0.7-9.3,1.9-13.7,3.7l-7.7-8.9
	c-4.5,2-8.8,4.5-12.8,7.4l3.9,11.098c-3.7,2.9-7.1,6.3-10,9.998l-11.1-3.898c-2.9,3.898-5.4,8.199-7.4,12.598l8.9,7.698
	c-1.8,4.4-2.9,8.999-3.7,13.698l-11.6,2.2c-0.5,4.899-0.5,9.799,0,14.698l11.6,2.2c0.7,4.699,1.9,9.301,3.7,13.699l-8.9,7.701
	c2,4.5,4.5,8.799,7.4,12.799l11.1-3.898c2.9,3.699,6.3,7.103,10,10l-3.9,11.103c4,2.897,8.3,5.301,12.8,7.397l7.7-8.897
	c4.4,1.801,9,2.897,13.7,3.698l2.2,11.603c4.9,0.5,9.8,0.5,14.7,0l2.199-11.603c4.7-0.698,9.301-1.897,13.7-3.698l7.7,8.897
	c4.5-2,8.8-4.5,12.8-7.397l-3.899-11.103c3.699-2.897,7.102-6.301,10-10l11.102,3.898c2.898-4,5.3-8.299,7.398-12.799l-8.898-7.701
	c1.8-4.398,2.898-9,3.7-13.699l11.601-2.2c0.5-4.897,0.5-9.799,0-14.698l-11.601-2.2c-0.7-4.7-1.899-9.298-3.7-13.698l8.898-7.698
	c-2-4.499-4.5-8.799-7.398-12.798L249.9,50.05c-2.899-3.699-6.301-7.098-10-9.998l3.899-11.098c-4-2.9-8.3-5.3-12.8-7.4l-7.7,8.9
	c-4.399-1.8-9-2.9-13.7-3.701L207.4,15.353z"/>
</svg>
