<?xml version="1.0" encoding="utf-8"?>
<!-- Generator: Adobe Illustrator 16.0.0, SVG Export Plug-In . SVG Version: 6.00 Build 0)  -->
<!DOCTYPE svg PUBLIC "-//W3C//DTD SVG 1.1//EN" "http://www.w3.org/Graphics/SVG/1.1/DTD/svg11.dtd">
<svg version="1.1" id="Layer_1" xmlns="http://www.w3.org/2000/svg" xmlns:xlink="http://www.w3.org/1999/xlink" x="0px" y="0px"
	 width="100%" height="100%" viewBox="0 0 512 512" enable-background="new 0 0 512 512" xml:space="preserve">
<path d="M448,79.5H64l-64,64v16v64c0,35.344,28.688,64,64,64v160c-35.313,0-64,28.656-64,64h512c0-35.344-28.625-64-64-64v-160
	c35.375,0,64-28.656,64-64v-64v-16L448,79.5z M384,223.5c0,17.656-14.375,32-32,32s-32-14.344-32-32v-64h64V223.5z M192,223.5
	c0,17.656-14.344,32-32,32c-17.625,0-32-14.344-32-32v-64h64V223.5z M224,159.5h64v64c0,17.656-14.344,32-32,32
	c-17.625,0-32-14.344-32-32V159.5z M32,223.5v-64h64v64c0,17.656-14.344,32-32,32C46.375,255.5,32,241.156,32,223.5z M96,447.5
	V278.625c6.063-3.531,11.438-7.938,16-13.188c11.75,13.406,28.813,22.063,48,22.063c19.25,0,36.281-8.656,48-22.063
	c11.75,13.406,28.813,22.063,48,22.063c11.75,0,22.563-3.375,32-8.875V447.5H96z M416,447.5h-96V278.625
	c9.438,5.5,20.313,8.875,32,8.875c19.25,0,36.313-8.656,48-22.063c4.625,5.25,9.938,9.656,16,13.188V447.5z M480,223.5
	c0,17.656-14.375,32-32,32s-32-14.344-32-32v-64h64V223.5z M448,63.5H64v-64h384V63.5z M368,351.5c0,8.844-7.125,16-16,16
	c-8.813,0-16-7.156-16-16s7.188-16,16-16C360.875,335.5,368,342.656,368,351.5z"/>
</svg>
