<svg width="83" height="23" viewBox="0 0 83 23" fill="none" xmlns="http://www.w3.org/2000/svg">
<path d="M14.3516 9.91406C14.3516 11.5859 14.0625 13.0547 13.4844 14.3203C12.9062 15.5781 12.0781 16.5469 11 17.2266C9.92969 17.8984 8.69531 18.2344 7.29688 18.2344C5.91406 18.2344 4.67969 17.8984 3.59375 17.2266C2.51562 16.5469 1.67969 15.582 1.08594 14.332C0.5 13.082 0.203125 11.6406 0.195312 10.0078V9.04688C0.195312 7.38281 0.488281 5.91406 1.07422 4.64062C1.66797 3.36719 2.5 2.39453 3.57031 1.72266C4.64844 1.04297 5.88281 0.703125 7.27344 0.703125C8.66406 0.703125 9.89453 1.03906 10.9648 1.71094C12.043 2.375 12.875 3.33594 13.4609 4.59375C14.0469 5.84375 14.3438 7.30078 14.3516 8.96484V9.91406ZM11.3867 9.02344C11.3867 7.13281 11.0273 5.68359 10.3086 4.67578C9.59766 3.66797 8.58594 3.16406 7.27344 3.16406C5.99219 3.16406 4.98828 3.66797 4.26172 4.67578C3.54297 5.67578 3.17578 7.09375 3.16016 8.92969V9.91406C3.16016 11.7891 3.52344 13.2383 4.25 14.2617C4.98438 15.2852 6 15.7969 7.29688 15.7969C8.60938 15.7969 9.61719 15.2969 10.3203 14.2969C11.0312 13.2969 11.3867 11.8359 11.3867 9.91406V9.02344ZM19.6719 5.32031L19.7539 6.78516C20.6914 5.65234 21.9219 5.08594 23.4453 5.08594C26.0859 5.08594 27.4297 6.59766 27.4766 9.62109V18H24.6289V9.78516C24.6289 8.98047 24.4531 8.38672 24.1016 8.00391C23.7578 7.61328 23.1914 7.41797 22.4023 7.41797C21.2539 7.41797 20.3984 7.9375 19.8359 8.97656V18H16.9883V5.32031H19.6719Z" fill="#2C98F0"/>
<path d="M39.582 13.6055C39.582 12.8555 39.3164 12.2773 38.7852 11.8711C38.2617 11.4648 37.3125 11.0547 35.9375 10.6406C34.5625 10.2266 33.4688 9.76562 32.6562 9.25781C31.1016 8.28125 30.3242 7.00781 30.3242 5.4375C30.3242 4.0625 30.8828 2.92969 32 2.03906C33.125 1.14844 34.582 0.703125 36.3711 0.703125C37.5586 0.703125 38.6172 0.921875 39.5469 1.35938C40.4766 1.79687 41.207 2.42188 41.7383 3.23438C42.2695 4.03906 42.5352 4.93359 42.5352 5.91797H39.582C39.582 5.02734 39.3008 4.33203 38.7383 3.83203C38.1836 3.32422 37.3867 3.07031 36.3477 3.07031C35.3789 3.07031 34.625 3.27734 34.0859 3.69141C33.5547 4.10547 33.2891 4.68359 33.2891 5.42578C33.2891 6.05078 33.5781 6.57422 34.1562 6.99609C34.7344 7.41016 35.6875 7.81641 37.0156 8.21484C38.3438 8.60547 39.4102 9.05469 40.2148 9.5625C41.0195 10.0625 41.6094 10.6406 41.9844 11.2969C42.3594 11.9453 42.5469 12.707 42.5469 13.582C42.5469 15.0039 42 16.1367 40.9062 16.9805C39.8203 17.8164 38.3438 18.2344 36.4766 18.2344C35.2422 18.2344 34.1055 18.0078 33.0664 17.5547C32.0352 17.0938 31.2305 16.4609 30.6523 15.6562C30.082 14.8516 29.7969 13.9141 29.7969 12.8438H32.7617C32.7617 13.8125 33.082 14.5625 33.7227 15.0938C34.3633 15.625 35.2812 15.8906 36.4766 15.8906C37.5078 15.8906 38.2812 15.6836 38.7969 15.2695C39.3203 14.8477 39.582 14.293 39.582 13.6055ZM47.6797 6.70312C48.6094 5.625 49.7852 5.08594 51.207 5.08594C53.9102 5.08594 55.2812 6.62891 55.3203 9.71484V18H52.4727V9.82031C52.4727 8.94531 52.2812 8.32812 51.8984 7.96875C51.5234 7.60156 50.9688 7.41797 50.2344 7.41797C49.0938 7.41797 48.2422 7.92578 47.6797 8.94141V18H44.832V0H47.6797V6.70312ZM57.6758 11.543C57.6758 10.3008 57.9219 9.18359 58.4141 8.19141C58.9062 7.19141 59.5977 6.42578 60.4883 5.89453C61.3789 5.35547 62.4023 5.08594 63.5586 5.08594C65.2695 5.08594 66.6562 5.63672 67.7188 6.73828C68.7891 7.83984 69.3672 9.30078 69.4531 11.1211L69.4648 11.7891C69.4648 13.0391 69.2227 14.1562 68.7383 15.1406C68.2617 16.125 67.5742 16.8867 66.6758 17.4258C65.7852 17.9648 64.7539 18.2344 63.582 18.2344C61.793 18.2344 60.3594 17.6406 59.2812 16.4531C58.2109 15.2578 57.6758 13.668 57.6758 11.6836V11.543ZM60.5234 11.7891C60.5234 13.0938 60.793 14.1172 61.332 14.8594C61.8711 15.5938 62.6211 15.9609 63.582 15.9609C64.543 15.9609 65.2891 15.5859 65.8203 14.8359C66.3594 14.0859 66.6289 12.9883 66.6289 11.543C66.6289 10.2617 66.3516 9.24609 65.7969 8.49609C65.25 7.74609 64.5039 7.37109 63.5586 7.37109C62.6289 7.37109 61.8906 7.74219 61.3438 8.48438C60.7969 9.21875 60.5234 10.3203 60.5234 11.7891ZM82.9766 11.7891C82.9766 13.75 82.5312 15.3164 81.6406 16.4883C80.75 17.6523 79.5547 18.2344 78.0547 18.2344C76.6641 18.2344 75.5508 17.7773 74.7148 16.8633V22.875H71.8672V5.32031H74.4922L74.6094 6.60938C75.4453 5.59375 76.582 5.08594 78.0195 5.08594C79.5664 5.08594 80.7773 5.66406 81.6523 6.82031C82.5352 7.96875 82.9766 9.56641 82.9766 11.6133V11.7891ZM80.1406 11.543C80.1406 10.2773 79.8867 9.27344 79.3789 8.53125C78.8789 7.78906 78.1602 7.41797 77.2227 7.41797C76.0586 7.41797 75.2227 7.89844 74.7148 8.85938V14.4844C75.2305 15.4688 76.0742 15.9609 77.2461 15.9609C78.1523 15.9609 78.8594 15.5977 79.3672 14.8711C79.8828 14.1367 80.1406 13.0273 80.1406 11.543Z" fill="black"/>
</svg>
